<?xml version="1.0" standalone="no"?>
<!DOCTYPE svg PUBLIC "-//W3C//DTD SVG 20010904//EN"
 "http://www.w3.org/TR/2001/REC-SVG-20010904/DTD/svg10.dtd">
<svg version="1.0" xmlns="http://www.w3.org/2000/svg"
 width="160.000000pt" height="160.000000pt" viewBox="0 0 160.000000 160.000000"
 preserveAspectRatio="xMidYMid meet">
<metadata>
Created by potrace 1.11, written by Peter Selinger 2001-2013
</metadata>
<g transform="translate(0.000000,160.000000) scale(0.100000,-0.100000)"
fill="#000000" stroke="none">
<path d="M260 1221 c-36 -10 -86 -26 -112 -34 -32 -11 -48 -12 -50 -5 -3 8
-11 7 -27 -1 -32 -18 -26 -71 10 -88 40 -19 46 -31 62 -124 27 -159 68 -214
182 -244 75 -19 145 -19 220 0 118 31 162 82 190 220 17 88 41 120 79 109 31
-9 43 -29 50 -85 10 -72 42 -151 74 -182 54 -52 117 -72 227 -71 204 1 275 69
300 282 7 59 10 66 41 84 78 46 69 106 -14 99 -12 -1 -55 10 -95 25 -58 22
-95 28 -188 32 -128 5 -198 -9 -275 -54 -35 -20 -54 -24 -128 -24 -80 0 -93 3
-163 37 -74 36 -81 37 -197 40 -95 2 -135 -1 -186 -16z m327 -96 c56 -22 69
-59 54 -151 -19 -124 -69 -167 -196 -168 -100 -1 -159 23 -178 73 -31 75 -46
202 -28 230 25 40 262 51 348 16z m738 3 c38 -12 40 -15 43 -57 5 -61 -16
-172 -38 -208 -34 -57 -189 -77 -281 -36 -56 25 -79 68 -87 159 -8 107 10 135
99 154 57 12 213 5 264 -12z"/>
<path d="M481 1107 c-35 -18 -61 -74 -61 -130 0 -116 92 -180 154 -107 51 61
44 175 -15 224 -34 29 -44 31 -78 13z"/>
<path d="M1052 1104 c-78 -55 -71 -230 11 -258 65 -23 120 36 120 128 0 76
-44 146 -93 146 -9 0 -26 -7 -38 -16z"/>
<path d="M384 545 c-4 -9 -1 -28 7 -42 21 -39 125 -131 180 -158 l49 -25 0 41
0 42 33 -7 c17 -4 53 -10 80 -13 l47 -6 0 -78 c0 -72 2 -79 20 -79 18 0 20 7
20 79 l0 78 48 6 c26 3 62 9 80 13 l32 7 0 -42 0 -41 52 26 c97 49 215 186
180 208 -5 3 -53 -17 -108 -45 -121 -60 -193 -79 -304 -79 -110 0 -182 19
-300 78 -52 26 -98 48 -102 50 -5 2 -11 -4 -14 -13z"/>
</g>
</svg>
